Alegreya Sans SC-Black Italic.ufo
<glyph name="quotedbl" format="1">
  <advance width="436"/>
  <unicode hex="0022"/>
  <outline>
    <contour>
      <point x="288" y="637" type="line"/>
      <point x="265" y="370" type="line"/>
      <point x="279" y="359" type="line"/>
      <point x="367" y="373" type="line"/>
      <point x="448" y="634" type="line"/>
      <point x="439" y="646" type="line"/>
    </contour>
    <contour>
      <point x="102" y="637" type="line"/>
      <point x="79" y="370" type="line"/>
      <point x="93" y="359" type="line"/>
      <point x="181" y="373" type="line"/>
      <point x="262" y="634" type="line"/>
      <point x="253" y="646" type="line"/>
    </contour>
  </outline>
</glyph>
<glyph name="dollar" format="1">
  <advance width="469"/>
  <unicode hex="0024"/>
  <outline>
    <contour>
      <point x="171" y="81" type="line"/>
      <point x="150" y="-126" type="line"/>
      <point x="161" y="-140" type="line"/>
      <point x="257" y="-140" type="line"/>
      <point x="281" y="81" type="line"/>
    </contour>
    <contour>
      <point x="235" y="645" type="line"/>
      <point x="212" y="431" type="line"/>
      <point x="321" y="431" type="line"/>
      <point x="343" y="631" type="line"/>
      <point x="329" y="645" type="line"/>
    </contour>
    <component base="s" xOffset="-1"/>
  </outline>
</glyph>
<glyph name="quotesingle" format="1">
  <advance width="249"/>
  <unicode hex="0027"/>
  <outline>
    <contour>
      <point x="102" y="637" type="line"/>
      <point x="79" y="370" type="line"/>
      <point x="93" y="359" type="line"/>
      <point x="181" y="373" type="line"/>
      <point x="262" y="634" type="line"/>
      <point x="253" y="646" type="line"/>
    </contour>
  </outline>
</glyph>
<glyph name="comma" format="1">
  <advance width="229"/>
  <unicode hex="002C"/>
  <outline>
    <contour>
      <point x="96" y="169"/>
      <point x="50" y="149"/>
      <point x="5" y="124" type="curve"/>
      <point x="4" y="108" type="line"/>
      <point x="27" y="86"/>
      <point x="37" y="63"/>
      <point x="37" y="34" type="curve" smooth="yes"/>
      <point x="37" y="-8"/>
      <point x="19" y="-42"/>
      <point x="-19" y="-75" type="curve"/>
      <point x="-17" y="-89" type="line"/>
      <point x="44" y="-142" type="line"/>
      <point x="147" y="-70"/>
      <point x="195" y="-1"/>
      <point x="195" y="76" type="curve" smooth="yes"/>
      <point x="195" y="118"/>
      <point x="180" y="151"/>
      <point x="147" y="182" type="curve"/>
    </contour>
  </outline>
</glyph>
<glyph name="hyphen" format="1">
  <advance width="300"/>
  <unicode hex="002D"/>
  <outline>
    <contour>
      <point x="33" y="302" type="line"/>
      <point x="19" y="182" type="line"/>
      <point x="31" y="168" type="line"/>
      <point x="271" y="206" type="line"/>
      <point x="284" y="326" type="line"/>
      <point x="272" y="340" type="line"/>
    </contour>
  </outline>
</glyph>
<glyph name="slash" format="1">
  <advance width="280"/>
  <unicode hex="002F"/>
  <outline>
    <contour>
      <point x="209" y="683" type="line"/>
      <point x="-54" y="-103" type="line"/>
      <point x="-44" y="-118" type="line"/>
      <point x="90" y="-118" type="line"/>
      <point x="353" y="667" type="line"/>
      <point x="339" y="683" type="line"/>
    </contour>
  </outline>
</glyph>
<glyph name="zero" format="1">
  <advance width="517"/>
  <unicode hex="0030"/>
  <outline>
    <contour>
      <point x="129" y="524"/>
      <point x="28" y="392"/>
      <point x="28" y="214" type="curve" smooth="yes"/>
      <point x="28" y="65"/>
      <point x="99" y="-12"/>
      <point x="226" y="-12" type="curve" smooth="yes"/>
      <point x="391" y="-12"/>
      <point x="493" y="117"/>
      <point x="493" y="299" type="curve" smooth="yes"/>
      <point x="493" y="451"/>
      <point x="421" y="524"/>
      <point x="296" y="524" type="curve" smooth="yes"/>
    </contour>
    <contour>
      <point x="322" y="343"/>
      <point x="340" y="322"/>
      <point x="340" y="263" type="curve" smooth="yes"/>
      <point x="340" y="195"/>
      <point x="315" y="158"/>
      <point x="250" y="158" type="curve" smooth="yes"/>
      <point x="193" y="158"/>
      <point x="181" y="184"/>
      <point x="181" y="240" type="curve" smooth="yes"/>
      <point x="181" y="307"/>
      <point x="199" y="343"/>
      <point x="269" y="343" type="curve" smooth="yes"/>
    </contour>
  </outline>
</glyph>
<glyph name="seven" format="1">
  <advance width="450"/>
  <unicode hex="0037"/>
  <outline>
    <contour>
      <point x="23" y="357" type="line"/>
      <point x="30" y="342" type="line"/>
      <point x="143" y="354" type="line"/>
      <point x="253" y="354" type="line"/>
      <point x="25" y="-24" type="line"/>
      <point x="34" y="-54" type="line"/>
      <point x="183" y="-97" type="line"/>
      <point x="276" y="88" type="line"/>
      <point x="443" y="375" type="line"/>
      <point x="460" y="516" type="line"/>
      <point x="403" y="514" type="line"/>
      <point x="192" y="514" type="line"/>
      <point x="55" y="519" type="line"/>
    </contour>
  </outline>
</glyph>
<glyph name="C" format="1">
  <advance width="516"/>
  <unicode hex="0043"/>
  <outline>
    <contour>
      <point x="156" y="658"/>
      <point x="25" y="509"/>
      <point x="25" y="263" type="curve" smooth="yes"/>
      <point x="25" y="87"/>
      <point x="129" y="-11"/>
      <point x="322" y="-11" type="curve" smooth="yes"/>
      <point x="366" y="-11"/>
      <point x="405" y="-7"/>
      <point x="454" y="8" type="curve"/>
      <point x="489" y="166" type="line"/>
      <point x="475" y="175" type="line"/>
      <point x="436" y="162"/>
      <point x="384" y="154"/>
      <point x="348" y="154" type="curve" smooth="yes"/>
      <point x="274" y="154"/>
      <point x="239" y="198"/>
      <point x="239" y="295" type="curve" smooth="yes"/>
      <point x="239" y="432"/>
      <point x="275" y="496"/>
      <point x="378" y="496" type="curve" smooth="yes"/>
      <point x="416" y="496"/>
      <point x="464" y="484"/>
      <point x="497" y="465" type="curve"/>
      <point x="511" y="472" type="line"/>
      <point x="563" y="631" type="line"/>
      <point x="517" y="648"/>
      <point x="456" y="658"/>
      <point x="395" y="658" type="curve" smooth="yes"/>
    </contour>
    <contour>
      <point x="327" y="0" type="move" name="bottom"/>
    </contour>
    <contour>
      <point x="344" y="647" type="move" name="top"/>
    </contour>
  </outline>
</glyph>
<glyph name="D" format="1">
  <advance width="668"/>
  <unicode hex="0044"/>
  <outline>
    <contour>
      <point x="111" y="647" type="line"/>
      <point x="271" y="490" type="line"/>
      <point x="306" y="494"/>
      <point x="343" y="496"/>
      <point x="367" y="496" type="curve" smooth="yes"/>
      <point x="427" y="496"/>
      <point x="453" y="461"/>
      <point x="453" y="368" type="curve" smooth="yes"/>
      <point x="453" y="199"/>
      <point x="405" y="139"/>
      <point x="330" y="139" type="curve" smooth="yes"/>
      <point x="304" y="139"/>
      <point x="254" y="145"/>
      <point x="222" y="151" type="curve"/>
      <point x="32" y="0" type="line"/>
      <point x="109" y="-5"/>
      <point x="220" y="-9"/>
      <point x="285" y="-9" type="curve" smooth="yes"/>
      <point x="533" y="-9"/>
      <point x="665" y="145"/>
      <point x="665" y="397" type="curve" smooth="yes"/>
      <point x="665" y="560"/>
      <point x="564" y="651"/>
      <point x="393" y="651" type="curve"/>
    </contour>
    <contour>
      <point x="111" y="647" type="line"/>
      <point x="65" y="190" type="line"/>
      <point x="32" y="0" type="line"/>
      <point x="232" y="0" type="line"/>
      <point x="249" y="210" type="line"/>
      <point x="314" y="647" type="line"/>
    </contour>
    <contour>
      <point x="327" y="324" type="move" name="center"/>
    </contour>
    <contour>
      <point x="352" y="647" type="move" name="top"/>
    </contour>
  </outline>
</glyph>
<glyph name="M" format="1">
  <advance width="806"/>
  <unicode hex="004D"/>
  <outline>
    <contour>
      <point x="547" y="647" type="line"/>
      <point x="511" y="548" type="line"/>
      <point x="419" y="319" type="line"/>
      <point x="407" y="319" type="line"/>
      <point x="379" y="555" type="line"/>
      <point x="371" y="647" type="line"/>
      <point x="140" y="647" type="line"/>
      <point x="-2" y="0" type="line"/>
      <point x="165" y="0" type="line"/>
      <point x="200" y="215" type="line"/>
      <point x="232" y="361" type="line"/>
      <point x="244" y="361" type="line"/>
      <point x="295" y="61" type="line"/>
      <point x="445" y="61" type="line"/>
      <point x="588" y="361" type="line"/>
      <point x="600" y="361" type="line"/>
      <point x="591" y="196" type="line"/>
      <point x="571" y="0" type="line"/>
      <point x="747" y="0" type="line"/>
      <point x="774" y="647" type="line"/>
    </contour>
  </outline>
</glyph>
<glyph name="W" format="1">
  <advance width="914"/>
  <unicode hex="0057"/>
  <outline>
    <contour>
      <point x="780" y="647" type="line"/>
      <point x="748" y="535" type="line"/>
      <point x="628" y="201" type="line"/>
      <point x="617" y="201" type="line"/>
      <point x="589" y="526" type="line"/>
      <point x="590" y="647" type="line"/>
      <point x="387" y="647" type="line"/>
      <point x="403" y="497" type="line"/>
      <point x="292" y="201" type="line"/>
      <point x="281" y="201" type="line"/>
      <point x="260" y="547" type="line"/>
      <point x="262" y="647" type="line"/>
      <point x="68" y="647" type="line"/>
      <point x="140" y="0" type="line"/>
      <point x="353" y="0" type="line"/>
      <point x="439" y="234" type="line"/>
      <point x="450" y="234" type="line"/>
      <point x="482" y="0" type="line"/>
      <point x="694" y="0" type="line"/>
      <point x="964" y="647" type="line"/>
    </contour>
    <contour>
      <point x="487" y="647" type="move" name="top"/>
    </contour>
  </outline>
</glyph>
<glyph name="c" format="1">
  <advance width="448"/>
  <unicode hex="0063"/>
  <outline>
    <contour>
      <point x="128" y="522"/>
      <point x="18" y="403"/>
      <point x="18" y="224" type="curve" smooth="yes"/>
      <point x="18" y="71"/>
      <point x="98" y="-10"/>
      <point x="286" y="-10" type="curve" smooth="yes"/>
      <point x="308" y="-10"/>
      <point x="342" y="-9"/>
      <point x="381" y="-2" type="curve"/>
      <point x="414" y="149" type="line"/>
      <point x="400" y="157" type="line"/>
      <point x="370" y="148"/>
      <point x="328" y="142"/>
      <point x="301" y="142" type="curve" smooth="yes"/>
      <point x="235" y="142"/>
      <point x="216" y="178"/>
      <point x="216" y="250" type="curve" smooth="yes"/>
      <point x="216" y="337"/>
      <point x="245" y="373"/>
      <point x="312" y="373" type="curve" smooth="yes"/>
      <point x="348" y="373"/>
      <point x="387" y="363"/>
      <point x="413" y="347" type="curve"/>
      <point x="426" y="355" type="line"/>
      <point x="474" y="506" type="line"/>
      <point x="436" y="516"/>
      <point x="381" y="522"/>
      <point x="334" y="522" type="curve" smooth="yes"/>
    </contour>
    <contour>
      <point x="280" y="0" type="move" name="bottom"/>
    </contour>
    <contour>
      <point x="302" y="513" type="move" name="top"/>
    </contour>
  </outline>
</glyph>
<glyph name="e" format="1">
  <advance width="480"/>
  <unicode hex="0065"/>
  <outline>
    <contour>
      <point x="87" y="513" type="line"/>
      <point x="52" y="149" type="line"/>
      <point x="24" y="0" type="line"/>
      <point x="209" y="0" type="line"/>
      <point x="222" y="168" type="line"/>
      <point x="275" y="513" type="line"/>
    </contour>
    <contour>
      <point x="300" y="141" type="line"/>
      <point x="166" y="141" type="line"/>
      <point x="150" y="10" type="line"/>
      <point x="148" y="0" type="line"/>
      <point x="421" y="0" type="line"/>
      <point x="449" y="134" type="line"/>
      <point x="440" y="146" type="line"/>
    </contour>
    <contour>
      <point x="327" y="327" type="line"/>
      <point x="197" y="327" type="line"/>
      <point x="182" y="195" type="line"/>
      <point x="180" y="185" type="line"/>
      <point x="298" y="185" type="line"/>
      <point x="396" y="182" type="line"/>
      <point x="423" y="317" type="line"/>
      <point x="415" y="330" type="line"/>
    </contour>
    <contour>
      <point x="211" y="513" type="line"/>
      <point x="195" y="382" type="line"/>
      <point x="194" y="372" type="line"/>
      <point x="338" y="372" type="line"/>
      <point x="472" y="366" type="line"/>
      <point x="500" y="500" type="line"/>
      <point x="491" y="513" type="line"/>
    </contour>
    <contour>
      <point x="240" y="0" type="move" name="bottom"/>
    </contour>
    <contour>
      <point x="421" y="10" type="move" name="ogonek"/>
    </contour>
    <contour>
      <point x="271" y="513" type="move" name="top"/>
    </contour>
  </outline>
</glyph>
<glyph name="j" format="1">
  <advance width="345"/>
  <unicode hex="006A"/>
  <outline>
    <contour>
      <point x="122" y="513" type="line"/>
      <point x="86" y="150" type="line"/>
      <point x="79" y="100" type="line"/>
      <point x="74" y="56"/>
      <point x="52" y="33"/>
      <point x="-8" y="10" type="curve"/>
      <point x="-9" y="-4" type="line"/>
      <point x="30" y="-99" type="line"/>
      <point x="184" y="-52"/>
      <point x="238" y="-1"/>
      <point x="251" y="99" type="curve"/>
      <point x="257" y="168" type="line"/>
      <point x="308" y="513" type="line"/>
    </contour>
    <contour>
      <point x="47" y="513" type="line"/>
      <point x="21" y="387" type="line"/>
      <point x="29" y="376" type="line"/>
      <point x="126" y="379" type="line"/>
      <point x="141" y="513" type="line"/>
    </contour>
  </outline>
</glyph>
<glyph name="n" format="1">
  <advance width="616"/>
  <unicode hex="006E"/>
  <outline>
    <contour>
      <point x="428" y="506" type="line"/>
      <point x="406" y="271" type="line"/>
      <point x="395" y="271" type="line"/>
      <point x="285" y="513" type="line"/>
      <point x="87" y="513" type="line"/>
      <point x="52" y="150" type="line"/>
      <point x="24" y="0" type="line"/>
      <point x="189" y="0" type="line"/>
      <point x="206" y="189" type="line"/>
      <point x="213" y="241" type="line"/>
      <point x="222" y="241" type="line"/>
      <point x="332" y="0" type="line"/>
      <point x="530" y="0" type="line"/>
      <point x="544" y="171" type="line"/>
      <point x="597" y="516" type="line"/>
    </contour>
    <contour>
      <point x="277" y="0" type="move" name="bottom"/>
    </contour>
    <contour>
      <point x="338" y="513" type="move" name="top"/>
    </contour>
  </outline>
</glyph>
<glyph name="q" format="1">
  <advance width="573"/>
  <unicode hex="0071"/>
  <outline>
    <contour>
      <point x="125" y="523"/>
      <point x="17" y="397"/>
      <point x="17" y="222" type="curve" smooth="yes"/>
      <point x="17" y="63"/>
      <point x="106" y="-11"/>
      <point x="253" y="-11" type="curve" smooth="yes"/>
      <point x="445" y="-11"/>
      <point x="553" y="118"/>
      <point x="553" y="292" type="curve" smooth="yes"/>
      <point x="553" y="450"/>
      <point x="464" y="523"/>
      <point x="318" y="523" type="curve" smooth="yes"/>
    </contour>
    <contour>
      <point x="238" y="10" type="line"/>
      <point x="311" y="-60"/>
      <point x="391" y="-120"/>
      <point x="480" y="-172" type="curve"/>
      <point x="493" y="-165" type="line"/>
      <point x="536" y="-132"/>
      <point x="565" y="-96"/>
      <point x="593" y="-52" type="curve"/>
      <point x="588" y="-36" type="line"/>
      <point x="507" y="-9"/>
      <point x="431" y="23"/>
      <point x="359" y="63" type="curve"/>
    </contour>
    <contour>
      <point x="348" y="377"/>
      <point x="359" y="358"/>
      <point x="359" y="279" type="curve" smooth="yes"/>
      <point x="359" y="140"/>
      <point x="325" y="125"/>
      <point x="277" y="125" type="curve" smooth="yes"/>
      <point x="222" y="125"/>
      <point x="210" y="143"/>
      <point x="210" y="224" type="curve" smooth="yes"/>
      <point x="210" y="361"/>
      <point x="245" y="377"/>
      <point x="295" y="377" type="curve" smooth="yes"/>
    </contour>
  </outline>
</glyph>
<glyph name="r" format="1">
  <advance width="556"/>
  <unicode hex="0072"/>
  <outline>
    <contour>
      <point x="87" y="513" type="line"/>
      <point x="179" y="378" type="line"/>
      <point x="291" y="387" type="line"/>
      <point x="324" y="384"/>
      <point x="338" y="372"/>
      <point x="338" y="337" type="curve" smooth="yes"/>
      <point x="338" y="310"/>
      <point x="330" y="288"/>
      <point x="296" y="272" type="curve"/>
      <point x="123" y="283" type="line"/>
      <point x="106" y="142" type="line"/>
      <point x="287" y="142" type="line"/>
      <point x="431" y="169"/>
      <point x="536" y="254"/>
      <point x="536" y="365" type="curve" smooth="yes"/>
      <point x="536" y="458"/>
      <point x="463" y="513"/>
      <point x="350" y="513" type="curve"/>
    </contour>
    <contour>
      <point x="87" y="513" type="line"/>
      <point x="51" y="149" type="line"/>
      <point x="24" y="0" type="line"/>
      <point x="209" y="0" type="line"/>
      <point x="221" y="168" type="line"/>
      <point x="275" y="513" type="line"/>
    </contour>
    <contour>
      <point x="246" y="230" type="line"/>
      <point x="265" y="154"/>
      <point x="290" y="80"/>
      <point x="315" y="9" type="curve"/>
      <point x="337" y="-10" type="line"/>
      <point x="400" y="-6"/>
      <point x="461" y="6"/>
      <point x="521" y="23" type="curve"/>
      <point x="527" y="43" type="line"/>
      <point x="485" y="105"/>
      <point x="447" y="169"/>
      <point x="412" y="232" type="curve"/>
    </contour>
    <contour>
      <point x="263" y="0" type="move" name="bottom"/>
    </contour>
    <contour>
      <point x="289" y="513" type="move" name="top"/>
    </contour>
  </outline>
</glyph>
<glyph name="t" format="1">
  <advance width="457"/>
  <unicode hex="0074"/>
  <outline>
    <contour>
      <point x="170" y="495" type="line"/>
      <point x="134" y="149" type="line"/>
      <point x="107" y="0" type="line"/>
      <point x="291" y="0" type="line"/>
      <point x="304" y="168" type="line"/>
      <point x="351" y="495" type="line"/>
    </contour>
    <contour>
      <point x="56" y="513" type="line"/>
      <point x="29" y="379" type="line"/>
      <point x="38" y="366" type="line"/>
      <point x="153" y="372" type="line"/>
      <point x="337" y="372" type="line"/>
      <point x="448" y="366" type="line"/>
      <point x="475" y="500" type="line"/>
      <point x="467" y="513" type="line"/>
    </contour>
    <contour>
      <point x="216" y="0" type="move" name="bottom"/>
    </contour>
    <contour>
      <point x="239" y="257" type="move" name="center"/>
    </contour>
    <contour>
      <point x="260" y="513" type="move" name="top"/>
    </contour>
  </outline>
</glyph>
<glyph name="x" format="1">
  <advance width="554"/>
  <unicode hex="0078"/>
  <outline>
    <contour>
      <point x="390" y="513" type="line"/>
      <point x="357" y="453" type="line"/>
      <point x="303" y="377" type="line"/>
      <point x="273" y="442" type="line"/>
      <point x="252" y="513" type="line"/>
      <point x="34" y="513" type="line"/>
      <point x="174" y="252" type="line"/>
      <point x="-22" y="0" type="line"/>
      <point x="167" y="0" type="line"/>
      <point x="202" y="59" type="line"/>
      <point x="262" y="133" type="line"/>
      <point x="291" y="69" type="line"/>
      <point x="312" y="0" type="line"/>
      <point x="529" y="0" type="line"/>
      <point x="394" y="262" type="line"/>
      <point x="584" y="513" type="line"/>
    </contour>
  </outline>
</glyph>
<glyph name="asciitilde" format="1">
  <advance width="480"/>
  <unicode hex="007E"/>
  <outline>
    <contour>
      <point x="181" y="212"/>
      <point x="298" y="165"/>
      <point x="356" y="157" type="curve"/>
      <point x="373" y="162" type="line"/>
      <point x="478" y="277" type="line"/>
      <point x="480" y="293" type="line"/>
      <point x="438" y="356" type="line"/>
      <point x="422" y="356" type="line"/>
      <point x="390" y="325"/>
      <point x="363" y="295"/>
      <point x="338" y="295" type="curve" smooth="yes"/>
      <point x="304" y="295"/>
      <point x="187" y="341"/>
      <point x="128" y="352" type="curve"/>
      <point x="112" y="345" type="line"/>
      <point x="5" y="230" type="line"/>
      <point x="3" y="214" type="line"/>
      <point x="47" y="152" type="line"/>
      <point x="63" y="152" type="line"/>
      <point x="93" y="182"/>
      <point x="121" y="212"/>
      <point x="148" y="212" type="curve" smooth="yes"/>
    </contour>
  </outline>
</glyph>
<glyph name="brokenbar" format="1">
  <advance width="300"/>
  <unicode hex="00A6"/>
  <outline>
    <contour>
      <point x="146" y="799" type="line"/>
      <point x="94" y="376" type="line"/>
      <point x="105" y="365" type="line"/>
      <point x="239" y="382" type="line"/>
      <point x="294" y="797" type="line"/>
      <point x="282" y="810" type="line"/>
    </contour>
    <contour>
      <point x="65" y="146" type="line"/>
      <point x="17" y="-240" type="line"/>
      <point x="30" y="-256" type="line"/>
      <point x="162" y="-245" type="line"/>
      <point x="209" y="145" type="line"/>
      <point x="196" y="161" type="line"/>
    </contour>
  </outline>
</glyph>
<glyph name="section" format="1">
  <advance width="465"/>
  <unicode hex="00A7"/>
  <outline>
    <contour>
      <point x="125" y="420"/>
      <point x="24" y="332"/>
      <point x="24" y="234" type="curve" smooth="yes"/>
      <point x="24" y="95"/>
      <point x="232" y="87"/>
      <point x="232" y="41" type="curve" smooth="yes"/>
      <point x="232" y="30"/>
      <point x="220" y="16"/>
      <point x="189" y="16" type="curve" smooth="yes"/>
      <point x="150" y="16"/>
      <point x="91" y="40"/>
      <point x="46" y="78" type="curve"/>
      <point x="29" y="67" type="line"/>
      <point x="-8" y="-68" type="line"/>
      <point x="42" y="-85"/>
      <point x="113" y="-96"/>
      <point x="161" y="-96" type="curve" smooth="yes"/>
      <point x="289" y="-96"/>
      <point x="390" y="-22"/>
      <point x="390" y="72" type="curve" smooth="yes"/>
      <point x="390" y="205"/>
      <point x="183" y="203"/>
      <point x="183" y="281" type="curve" smooth="yes"/>
      <point x="183" y="311"/>
      <point x="215" y="341"/>
      <point x="273" y="356" type="curve"/>
      <point x="255" y="422" type="line"/>
    </contour>
    <contour>
      <point x="190" y="658"/>
      <point x="88" y="581"/>
      <point x="88" y="487" type="curve" smooth="yes"/>
      <point x="88" y="352"/>
      <point x="295" y="356"/>
      <point x="295" y="277" type="curve" smooth="yes"/>
      <point x="295" y="247"/>
      <point x="264" y="218"/>
      <point x="200" y="202" type="curve"/>
      <point x="225" y="141" type="line"/>
      <point x="355" y="143"/>
      <point x="455" y="229"/>
      <point x="455" y="324" type="curve" smooth="yes"/>
      <point x="455" y="462"/>
      <point x="247" y="471"/>
      <point x="247" y="517" type="curve" smooth="yes"/>
      <point x="247" y="528"/>
      <point x="261" y="540"/>
      <point x="287" y="540" type="curve" smooth="yes"/>
      <point x="315" y="540"/>
      <point x="360" y="526"/>
      <point x="404" y="497" type="curve"/>
      <point x="426" y="504" type="line"/>
      <point x="461" y="633" type="line"/>
      <point x="423" y="648"/>
      <point x="366" y="658"/>
      <point x="320" y="658" type="curve" smooth="yes"/>
    </contour>
  </outline>
</glyph>
<glyph name="Thorn" format="1">
  <advance width="603"/>
  <unicode hex="00DE"/>
  <outline>
    <contour>
      <point x="111" y="647" type="line"/>
      <point x="65" y="190" type="line"/>
      <point x="31" y="0" type="line"/>
      <point x="233" y="0" type="line"/>
      <point x="251" y="210" type="line"/>
      <point x="316" y="647" type="line"/>
    </contour>
    <contour>
      <point x="117" y="555" type="line"/>
      <point x="214" y="411" type="line"/>
      <point x="331" y="420" type="line"/>
      <point x="384" y="417"/>
      <point x="408" y="397"/>
      <point x="408" y="351" type="curve" smooth="yes"/>
      <point x="408" y="297"/>
      <point x="390" y="261"/>
      <point x="342" y="237" type="curve"/>
      <point x="149" y="248" type="line"/>
      <point x="131" y="101" type="line"/>
      <point x="308" y="101" type="line"/>
      <point x="493" y="101"/>
      <point x="616" y="216"/>
      <point x="616" y="383" type="curve" smooth="yes"/>
      <point x="616" y="494"/>
      <point x="537" y="556"/>
      <point x="407" y="556" type="curve"/>
    </contour>
  </outline>
</glyph>
<glyph name="germandbls" format="1">
  <advance width="624"/>
  <unicode hex="00DF"/>
  <outline>
    <contour>
      <point x="171" y="523"/>
      <point x="73" y="441"/>
      <point x="57" y="315" type="curve" smooth="yes"/>
      <point x="41" y="150" type="line"/>
      <point x="13" y="0" type="line"/>
      <point x="198" y="0" type="line"/>
      <point x="211" y="168" type="line"/>
      <point x="234" y="315" type="line"/>
      <point x="239" y="362"/>
      <point x="258" y="379"/>
      <point x="316" y="379" type="curve" smooth="yes"/>
      <point x="336" y="379"/>
      <point x="348" y="377"/>
      <point x="364" y="373" type="curve"/>
      <point x="269" y="261" type="line"/>
      <point x="270" y="244" type="line"/>
      <point x="368" y="183"/>
      <point x="403" y="169"/>
      <point x="403" y="150" type="curve" smooth="yes"/>
      <point x="403" y="141"/>
      <point x="394" y="134"/>
      <point x="380" y="134" type="curve" smooth="yes"/>
      <point x="353" y="134"/>
      <point x="317" y="153"/>
      <point x="280" y="187" type="curve"/>
      <point x="265" y="178" type="line"/>
      <point x="219" y="18" type="line"/>
      <point x="264" y="0"/>
      <point x="320" y="-11"/>
      <point x="375" y="-11" type="curve" smooth="yes"/>
      <point x="492" y="-11"/>
      <point x="605" y="37"/>
      <point x="605" y="162" type="curve" smooth="yes"/>
      <point x="605" y="212"/>
      <point x="574" y="242"/>
      <point x="484" y="309" type="curve"/>
      <point x="599" y="443" type="line"/>
      <point x="594" y="463" type="line"/>
      <point x="507" y="503"/>
      <point x="441" y="523"/>
      <point x="351" y="523" type="curve" smooth="yes"/>
    </contour>
  </outline>
</glyph>
<glyph name="ae" format="1">
  <advance width="724"/>
  <unicode hex="00E6"/>
  <outline>
    <contour>
      <point x="265" y="512" type="line"/>
      <point x="-38" y="0" type="line"/>
      <point x="126" y="0" type="line"/>
      <point x="166" y="98" type="line"/>
      <point x="321" y="363" type="line"/>
      <point x="332" y="363" type="line"/>
      <point x="325" y="88" type="line"/>
      <point x="317" y="0" type="line"/>
      <point x="688" y="0" type="line"/>
      <point x="713" y="121" type="line"/>
      <point x="706" y="133" type="line"/>
      <point x="563" y="128" type="line"/>
      <point x="484" y="128" type="line"/>
      <point x="494" y="384" type="line"/>
      <point x="559" y="384" type="line"/>
      <point x="688" y="378" type="line"/>
      <point x="714" y="499" type="line"/>
      <point x="705" y="512" type="line"/>
    </contour>
    <contour>
      <point x="458" y="293" type="line"/>
      <point x="141" y="203" type="line"/>
      <point x="85" y="65" type="line"/>
      <point x="461" y="171" type="line"/>
      <point x="653" y="221" type="line"/>
      <point x="653" y="336" type="line"/>
      <point x="642" y="346" type="line"/>
    </contour>
    <contour>
      <point x="466" y="513" type="move" name="top"/>
    </contour>
  </outline>
</glyph>
<glyph name="oslash" format="1">
  <advance width="568"/>
  <unicode hex="00F8"/>
  <outline>
    <contour>
      <point x="121" y="124" type="line"/>
      <point x="-2" y="-43" type="line"/>
      <point x="-0" y="-59" type="line"/>
      <point x="86" y="-118" type="line"/>
      <point x="215" y="59" type="line"/>
    </contour>
    <contour>
      <point x="446" y="376" type="line"/>
      <point x="565" y="539" type="line"/>
      <point x="558" y="556" type="line"/>
      <point x="478" y="614" type="line"/>
      <point x="359" y="451" type="line"/>
    </contour>
    <component base="o"/>
    <contour>
      <point x="305" y="515" type="move" name="top"/>
    </contour>
  </outline>
</glyph>
<glyph name="aogonek" format="1">
  <advance width="549"/>
  <unicode hex="0105"/>
  <outline>
    <contour>
      <point x="317" y="0" type="line"/>
      <point x="282" y="-44"/>
      <point x="271" y="-73"/>
      <point x="271" y="-109" type="curve" smooth="yes"/>
      <point x="271" y="-160"/>
      <point x="305" y="-197"/>
      <point x="364" y="-197" type="curve" smooth="yes"/>
      <point x="401" y="-197"/>
      <point x="435" y="-183"/>
      <point x="480" y="-151" type="curve"/>
      <point x="477" y="-79" type="line"/>
      <point x="467" y="-79" type="line"/>
      <point x="444" y="-92"/>
      <point x="422" y="-99"/>
      <point x="403" y="-99" type="curve" smooth="yes"/>
      <point x="382" y="-99"/>
      <point x="372" y="-87"/>
      <point x="372" y="-71" type="curve" smooth="yes"/>
      <point x="372" y="-56"/>
      <point x="381" y="-35"/>
      <point x="414" y="1" type="curve"/>
    </contour>
    <component base="a"/>
  </outline>
</glyph>
<glyph name="Iogonek" format="1">
  <advance width="327"/>
  <unicode hex="012E"/>
  <outline>
    <contour>
      <point x="32" y="0" type="line"/>
      <point x="8" y="-38"/>
      <point x="0" y="-67"/>
      <point x="0" y="-98" type="curve" smooth="yes"/>
      <point x="0" y="-154"/>
      <point x="39" y="-197"/>
      <point x="104" y="-197" type="curve" smooth="yes"/>
      <point x="141" y="-197"/>
      <point x="176" y="-183"/>
      <point x="217" y="-149" type="curve"/>
      <point x="205" y="-76" type="line"/>
      <point x="195" y="-76" type="line"/>
      <point x="174" y="-92"/>
      <point x="149" y="-99"/>
      <point x="131" y="-99" type="curve" smooth="yes"/>
      <point x="106" y="-99"/>
      <point x="96" y="-85"/>
      <point x="96" y="-68" type="curve" smooth="yes"/>
      <point x="96" y="-50"/>
      <point x="104" y="-25"/>
      <point x="130" y="12" type="curve"/>
    </contour>
    <component base="I"/>
  </outline>
</glyph>
<glyph name="ldot" format="1">
  <advance width="460"/>
  <unicode hex="0140"/>
  <outline>
    <contour>
      <point x="182" y="-89" type="move"/>
    </contour>
    <component base="l"/>
    <component base="periodcentered" xOffset="261" yOffset="76"/>
  </outline>
</glyph>
<glyph name="Lslash" format="1">
  <advance width="459"/>
  <unicode hex="0141"/>
  <outline>
    <contour>
      <point x="-17" y="301" type="line"/>
      <point x="4" y="187" type="line"/>
      <point x="19" y="178" type="line"/>
      <point x="396" y="358" type="line"/>
      <point x="374" y="471" type="line"/>
      <point x="359" y="480" type="line"/>
    </contour>
    <component base="L" xOffset="7.020"/>
  </outline>
</glyph>
<glyph name="tcedilla" format="1">
  <advance width="458"/>
  <unicode hex="0163"/>
  <outline>
    <contour>
      <point x="168" y="33" type="line"/>
      <point x="132" y="-79" type="line"/>
      <point x="180" y="-106" type="line" smooth="yes"/>
      <point x="186" y="-110"/>
      <point x="189" y="-113"/>
      <point x="189" y="-119" type="curve" smooth="yes"/>
      <point x="189" y="-129"/>
      <point x="183" y="-135"/>
      <point x="171" y="-135" type="curve" smooth="yes"/>
      <point x="157" y="-135"/>
      <point x="134" y="-125"/>
      <point x="115" y="-107" type="curve"/>
      <point x="108" y="-110" type="line"/>
      <point x="87" y="-185" type="line"/>
      <point x="112" y="-200"/>
      <point x="139" y="-209"/>
      <point x="175" y="-209" type="curve" smooth="yes"/>
      <point x="248" y="-209"/>
      <point x="295" y="-169"/>
      <point x="295" y="-117" type="curve" smooth="yes"/>
      <point x="295" y="-97"/>
      <point x="286" y="-78"/>
      <point x="258" y="-62" type="curve" smooth="yes"/>
      <point x="227" y="-43" type="line"/>
      <point x="251" y="33" type="line"/>
    </contour>
    <component base="t" xOffset="-3.980"/>
  </outline>
</glyph>
<glyph name="tbar" format="1">
  <advance width="458"/>
  <unicode hex="0167"/>
  <outline>
    <contour>
      <point x="68" y="255" type="line"/>
      <point x="50" y="167" type="line"/>
      <point x="60" y="154" type="line"/>
      <point x="380" y="154" type="line"/>
      <point x="398" y="242" type="line"/>
      <point x="388" y="255" type="line"/>
    </contour>
    <component base="t" xOffset="0.990"/>
  </outline>
</glyph>
<glyph name="Uogonek" format="1">
  <advance width="653"/>
  <unicode hex="0172"/>
  <outline>
    <contour>
      <point x="450" y="87" type="line"/>
      <point x="381" y="-9" type="line" smooth="yes"/>
      <point x="359" y="-40"/>
      <point x="348" y="-71"/>
      <point x="348" y="-100" type="curve" smooth="yes"/>
      <point x="348" y="-154"/>
      <point x="387" y="-197"/>
      <point x="452" y="-197" type="curve" smooth="yes"/>
      <point x="489" y="-197"/>
      <point x="521" y="-183"/>
      <point x="563" y="-151" type="curve"/>
      <point x="551" y="-79" type="line"/>
      <point x="541" y="-79" type="line"/>
      <point x="520" y="-92"/>
      <point x="498" y="-99"/>
      <point x="480" y="-99" type="curve" smooth="yes"/>
      <point x="455" y="-99"/>
      <point x="444" y="-85"/>
      <point x="444" y="-66" type="curve" smooth="yes"/>
      <point x="444" y="-52"/>
      <point x="450" y="-37"/>
      <point x="460" y="-22" type="curve" smooth="yes"/>
      <point x="530" y="87" type="line"/>
    </contour>
    <component base="U"/>
  </outline>
</glyph>
<glyph name="ohorn" format="1">
  <advance width="578"/>
  <unicode hex="01A1"/>
  <outline>
    <contour>
      <point x="481" y="582" type="line"/>
      <point x="493" y="572"/>
      <point x="499" y="556"/>
      <point x="499" y="541" type="curve" smooth="yes"/>
      <point x="499" y="518"/>
      <point x="488" y="502"/>
      <point x="460" y="502" type="curve" smooth="yes"/>
      <point x="428" y="502"/>
      <point x="374" y="523"/>
      <point x="304" y="523" type="curve" smooth="yes"/>
      <point x="137" y="523"/>
      <point x="17" y="405"/>
      <point x="17" y="207" type="curve" smooth="yes"/>
      <point x="17" y="70"/>
      <point x="105" y="-11"/>
      <point x="253" y="-11" type="curve" smooth="yes"/>
      <point x="444" y="-11"/>
      <point x="553" y="114"/>
      <point x="553" y="304" type="curve" smooth="yes"/>
      <point x="553" y="349"/>
      <point x="544" y="393"/>
      <point x="526" y="425" type="curve"/>
      <point x="588" y="435"/>
      <point x="640" y="491"/>
      <point x="640" y="555" type="curve" smooth="yes"/>
      <point x="640" y="598"/>
      <point x="614" y="629"/>
      <point x="575" y="629" type="curve" smooth="yes"/>
      <point x="544" y="629"/>
      <point x="510" y="611"/>
      <point x="485" y="595" type="curve"/>
    </contour>
    <contour>
      <point x="228" y="125"/>
      <point x="210" y="142"/>
      <point x="210" y="206" type="curve" smooth="yes"/>
      <point x="210" y="360"/>
      <point x="239" y="377"/>
      <point x="295" y="377" type="curve" smooth="yes"/>
      <point x="342" y="377"/>
      <point x="359" y="361"/>
      <point x="359" y="297" type="curve" smooth="yes"/>
      <point x="359" y="139"/>
      <point x="330" y="125"/>
      <point x="277" y="125" type="curve" smooth="yes"/>
    </contour>
    <contour>
      <point x="290" y="513" type="move" name="top"/>
    </contour>
  </outline>
</glyph>
<glyph name="uhorn" format="1">
  <advance width="580"/>
  <unicode hex="01B0"/>
  <outline>
    <contour>
      <point x="545" y="643"/>
      <point x="513" y="627"/>
      <point x="485" y="609" type="curve"/>
      <point x="480" y="596" type="line"/>
      <point x="492" y="587"/>
      <point x="499" y="573"/>
      <point x="499" y="556" type="curve" smooth="yes"/>
      <point x="499" y="526"/>
      <point x="488" y="513"/>
      <point x="448" y="513" type="curve"/>
      <point x="466" y="430" type="line"/>
      <point x="567" y="445"/>
      <point x="640" y="507"/>
      <point x="640" y="576" type="curve" smooth="yes"/>
      <point x="640" y="615"/>
      <point x="615" y="643"/>
      <point x="576" y="643" type="curve" smooth="yes"/>
    </contour>
    <component base="u"/>
    <contour>
      <point x="306" y="513" type="move" name="top"/>
    </contour>
  </outline>
</glyph>
<glyph name="firsttonechinese" format="1">
  <advance width="390"/>
  <unicode hex="02C9"/>
  <outline>
    <contour>
      <point x="104" y="690" type="line"/>
      <point x="95" y="584" type="line"/>
      <point x="107" y="571" type="line"/>
      <point x="383" y="571" type="line"/>
      <point x="392" y="678" type="line"/>
      <point x="380" y="690" type="line"/>
    </contour>
  </outline>
</glyph>
<glyph name="Delta" format="1">
  <advance width="626"/>
  <unicode hex="0394"/>
  <outline>
    <contour>
      <point x="249" y="647" type="line"/>
      <point x="-26" y="0" type="line"/>
      <point x="588" y="0" type="line"/>
      <point x="490" y="647" type="line"/>
    </contour>
    <contour>
      <point x="378" y="144" type="line"/>
      <point x="212" y="144" type="line"/>
      <point x="337" y="469" type="line"/>
      <point x="349" y="469" type="line"/>
    </contour>
  </outline>
</glyph>
<glyph name="odotbelow" format="1">
  <advance width="568"/>
  <unicode hex="1ECD"/>
  <outline>
    <component base="o"/>
    <component base="dotbelowcomb" xOffset="112"/>
    <contour>
      <point x="315" y="513" type="move" name="top"/>
    </contour>
  </outline>
</glyph>
<glyph name="endash" format="1">
  <advance width="451"/>
  <unicode hex="2013"/>
  <outline>
    <contour>
      <point x="6" y="325" type="line"/>
      <point x="-18" y="208" type="line"/>
      <point x="-7" y="195" type="line"/>
      <point x="453" y="195" type="line"/>
      <point x="476" y="312" type="line"/>
      <point x="466" y="325" type="line"/>
    </contour>
  </outline>
</glyph>
<glyph name="dagger" format="1">
  <advance width="524"/>
  <unicode hex="2020"/>
  <outline>
    <contour>
      <point x="236" y="584" type="line"/>
      <point x="198" y="279" type="line"/>
      <point x="154" y="-81" type="line"/>
      <point x="164" y="-94" type="line"/>
      <point x="283" y="-85" type="line"/>
      <point x="328" y="291" type="line"/>
      <point x="368" y="582" type="line"/>
      <point x="359" y="593" type="line"/>
    </contour>
    <contour>
      <point x="69" y="422" type="line"/>
      <point x="45" y="307" type="line"/>
      <point x="56" y="295" type="line"/>
      <point x="486" y="295" type="line"/>
      <point x="508" y="409" type="line"/>
      <point x="498" y="422" type="line"/>
    </contour>
  </outline>
</glyph>
<glyph name="perthousand" format="1">
  <advance width="1272"/>
  <unicode hex="2030"/>
  <outline>
    <contour>
      <point x="162" y="516" type="move"/>
    </contour>
    <component base="fraction" xOffset="377.980"/>
    <component base="zero.dnom" xOffset="514" yScale="0.92"/>
    <component base="zero.dnom" xOffset="890" yScale="0.92"/>
    <component base="zero.numr" xOffset="2" yOffset="55.990" yScale="0.92"/>
  </outline>
</glyph>
<glyph name="guilsinglright" format="1">
  <advance width="260"/>
  <unicode hex="203A"/>
  <outline>
    <contour>
      <point x="44" y="381" type="line"/>
      <point x="38" y="364" type="line"/>
      <point x="102" y="234" type="line"/>
      <point x="6" y="103" type="line"/>
      <point x="8" y="86" type="line"/>
      <point x="93" y="39" type="line"/>
      <point x="240" y="216" type="line"/>
      <point x="244" y="243" type="line"/>
      <point x="140" y="428" type="line"/>
    </contour>
  </outline>
</glyph>
<glyph name="partialdiff" format="1">
  <advance width="531"/>
  <unicode hex="2202"/>
  <outline>
    <contour>
      <point x="239" y="720" type="line"/>
      <point x="86" y="622" type="line"/>
      <point x="84" y="608" type="line"/>
      <point x="259" y="547"/>
      <point x="341" y="462"/>
      <point x="341" y="306" type="curve" smooth="yes"/>
      <point x="340" y="198"/>
      <point x="320" y="121"/>
      <point x="252" y="121" type="curve" smooth="yes"/>
      <point x="214" y="121"/>
      <point x="196" y="150"/>
      <point x="196" y="197" type="curve" smooth="yes"/>
      <point x="196" y="269"/>
      <point x="221" y="307"/>
      <point x="279" y="307" type="curve" smooth="yes"/>
      <point x="306" y="307"/>
      <point x="327" y="297"/>
      <point x="356" y="281" type="curve"/>
      <point x="352" y="472" type="line"/>
      <point x="306" y="434" type="line"/>
      <point x="285" y="444"/>
      <point x="266" y="448"/>
      <point x="244" y="448" type="curve" smooth="yes"/>
      <point x="101" y="448"/>
      <point x="13" y="314"/>
      <point x="13" y="192" type="curve" smooth="yes"/>
      <point x="13" y="86"/>
      <point x="78" y="-12"/>
      <point x="230" y="-12" type="curve" smooth="yes"/>
      <point x="415" y="-12"/>
      <point x="529" y="122"/>
      <point x="529" y="316" type="curve" smooth="yes"/>
      <point x="530" y="490"/>
      <point x="428" y="627"/>
      <point x="250" y="720" type="curve"/>
    </contour>
  </outline>
</glyph>
<glyph name="infinity" format="1">
  <advance width="482"/>
  <unicode hex="221E"/>
  <outline>
    <contour>
      <point x="317" y="424"/>
      <point x="274" y="396"/>
      <point x="247" y="364" type="curve"/>
      <point x="221" y="406"/>
      <point x="191" y="424"/>
      <point x="146" y="424" type="curve" smooth="yes"/>
      <point x="55" y="424"/>
      <point x="-13" y="353"/>
      <point x="-13" y="232" type="curve" smooth="yes"/>
      <point x="-13" y="147"/>
      <point x="30" y="92"/>
      <point x="109" y="92" type="curve" smooth="yes"/>
      <point x="165" y="92"/>
      <point x="210" y="117"/>
      <point x="239" y="153" type="curve"/>
      <point x="266" y="108"/>
      <point x="298" y="92"/>
      <point x="338" y="92" type="curve" smooth="yes"/>
      <point x="426" y="92"/>
      <point x="499" y="159"/>
      <point x="499" y="284" type="curve" smooth="yes"/>
      <point x="499" y="368"/>
      <point x="456" y="424"/>
      <point x="376" y="424" type="curve" smooth="yes"/>
    </contour>
    <contour>
      <point x="163" y="306"/>
      <point x="179" y="297"/>
      <point x="192" y="276" type="curve"/>
      <point x="174" y="241"/>
      <point x="154" y="216"/>
      <point x="125" y="216" type="curve" smooth="yes"/>
      <point x="105" y="216"/>
      <point x="93" y="228"/>
      <point x="93" y="252" type="curve" smooth="yes"/>
      <point x="93" y="285"/>
      <point x="110" y="306"/>
      <point x="142" y="306" type="curve" smooth="yes"/>
    </contour>
    <contour>
      <point x="379" y="300"/>
      <point x="391" y="288"/>
      <point x="391" y="265" type="curve" smooth="yes"/>
      <point x="391" y="230"/>
      <point x="373" y="209"/>
      <point x="343" y="209" type="curve" smooth="yes"/>
      <point x="322" y="209"/>
      <point x="306" y="219"/>
      <point x="294" y="240" type="curve"/>
      <point x="311" y="272"/>
      <point x="329" y="300"/>
      <point x="359" y="300" type="curve" smooth="yes"/>
    </contour>
  </outline>
</glyph>
<glyph name="integral" format="1">
  <advance width="319"/>
  <unicode hex="222B"/>
  <outline>
    <contour>
      <point x="214" y="710"/>
      <point x="117" y="639"/>
      <point x="101" y="509" type="curve"/>
      <point x="51" y="51" type="line" smooth="yes"/>
      <point x="45" y="-6"/>
      <point x="18" y="-39"/>
      <point x="-27" y="-63" type="curve"/>
      <point x="-28" y="-78" type="line"/>
      <point x="45" y="-161" type="line"/>
      <point x="167" y="-110"/>
      <point x="218" y="-45"/>
      <point x="229" y="56" type="curve" smooth="yes"/>
      <point x="286" y="543" type="line"/>
      <point x="290" y="572"/>
      <point x="305" y="578"/>
      <point x="324" y="578" type="curve" smooth="yes"/>
      <point x="343" y="578"/>
      <point x="371" y="572"/>
      <point x="409" y="555" type="curve"/>
      <point x="423" y="564" type="line"/>
      <point x="451" y="701" type="line"/>
      <point x="421" y="707"/>
      <point x="393" y="710"/>
      <point x="363" y="710" type="curve" smooth="yes"/>
    </contour>
  </outline>
</glyph>
<glyph name="C.ss01" format="1">
  <advance width="448"/>
  <outline>
    <contour>
      <point x="141" y="508"/>
      <point x="26" y="397"/>
      <point x="26" y="212" type="curve" smooth="yes"/>
      <point x="26" y="77"/>
      <point x="104" y="2"/>
      <point x="263" y="2" type="curve" smooth="yes"/>
      <point x="298" y="2"/>
      <point x="334" y="3"/>
      <point x="372" y="10" type="curve"/>
      <point x="403" y="149" type="line"/>
      <point x="390" y="158" type="line"/>
      <point x="362" y="151"/>
      <point x="321" y="147"/>
      <point x="296" y="147" type="curve" smooth="yes"/>
      <point x="240" y="147"/>
      <point x="214" y="175"/>
      <point x="214" y="242" type="curve" smooth="yes"/>
      <point x="214" y="333"/>
      <point x="237" y="367"/>
      <point x="310" y="367" type="curve" smooth="yes"/>
      <point x="338" y="367"/>
      <point x="377" y="359"/>
      <point x="402" y="346" type="curve"/>
      <point x="415" y="353" type="line"/>
      <point x="461" y="493" type="line"/>
      <point x="424" y="503"/>
      <point x="383" y="508"/>
      <point x="334" y="508" type="curve" smooth="yes"/>
    </contour>
    <contour>
      <point x="-120" y="65" type="line"/>
      <point x="-127" y="0" type="line"/>
      <point x="520" y="0" type="line"/>
      <point x="527" y="65" type="line"/>
    </contour>
    <contour>
      <point x="-65" y="513" type="line"/>
      <point x="-72" y="448" type="line"/>
      <point x="575" y="448" type="line"/>
      <point x="582" y="513" type="line"/>
    </contour>
    <contour>
      <point x="243" y="12" type="move" name="bottom"/>
    </contour>
    <contour>
      <point x="307" y="500" type="move" name="top"/>
    </contour>
  </outline>
</glyph>
<glyph name="V.ss01" format="1">
  <advance width="540"/>
  <outline>
    <contour>
      <point x="386" y="500" type="line"/>
      <point x="357" y="399" type="line"/>
      <point x="267" y="166" type="line"/>
      <point x="257" y="166" type="line"/>
      <point x="238" y="410" type="line"/>
      <point x="233" y="500" type="line"/>
      <point x="57" y="500" type="line"/>
      <point x="133" y="12" type="line"/>
      <point x="345" y="12" type="line"/>
      <point x="557" y="500" type="line"/>
    </contour>
    <contour>
      <point x="-120" y="65" type="line"/>
      <point x="-127" y="0" type="line"/>
      <point x="612" y="0" type="line"/>
      <point x="619" y="65" type="line"/>
    </contour>
    <contour>
      <point x="-65" y="513" type="line"/>
      <point x="-72" y="448" type="line"/>
      <point x="667" y="448" type="line"/>
      <point x="674" y="513" type="line"/>
    </contour>
  </outline>
</glyph>
<glyph name="X.ss01" format="1">
  <advance width="555"/>
  <outline>
    <contour>
      <point x="380" y="480" type="line"/>
      <point x="351" y="428" type="line"/>
      <point x="307" y="368" type="line"/>
      <point x="280" y="419" type="line"/>
      <point x="260" y="480" type="line"/>
      <point x="66" y="480" type="line"/>
      <point x="183" y="250" type="line"/>
      <point x="18" y="38" type="line"/>
      <point x="184" y="38" type="line"/>
      <point x="214" y="89" type="line"/>
      <point x="266" y="148" type="line"/>
      <point x="291" y="97" type="line"/>
      <point x="309" y="38" type="line"/>
      <point x="502" y="38" type="line"/>
      <point x="391" y="269" type="line"/>
      <point x="549" y="480" type="line"/>
    </contour>
    <contour>
      <point x="-120" y="65" type="line"/>
      <point x="-127" y="0" type="line"/>
      <point x="627" y="0" type="line"/>
      <point x="634" y="65" type="line"/>
    </contour>
    <contour>
      <point x="-65" y="513" type="line"/>
      <point x="-72" y="448" type="line"/>
      <point x="682" y="448" type="line"/>
      <point x="689" y="513" type="line"/>
    </contour>
  </outline>
</glyph>
<glyph name="breve.cap" format="1">
  <advance width="390"/>
  <outline>
    <contour>
      <point x="364" y="724" type="line"/>
      <point x="340" y="692"/>
      <point x="299" y="674"/>
      <point x="250" y="674" type="curve" smooth="yes"/>
      <point x="204" y="674"/>
      <point x="163" y="690"/>
      <point x="144" y="724" type="curve"/>
      <point x="117" y="724" type="line"/>
      <point x="69" y="665" type="line"/>
      <point x="92" y="585"/>
      <point x="154" y="541"/>
      <point x="241" y="541" type="curve" smooth="yes"/>
      <point x="326" y="541"/>
      <point x="386" y="585"/>
      <point x="424" y="665" type="curve" smooth="yes"/>
      <point x="391" y="724" type="line"/>
    </contour>
    <contour>
      <point x="227" y="472" type="move" name="_top"/>
    </contour>
  </outline>
</glyph>
<glyph name="breveacute" format="1">
  <advance width="390"/>
  <outline>
    <contour>
      <point x="362" y="704" type="line"/>
      <point x="338" y="672"/>
      <point x="297" y="654"/>
      <point x="248" y="654" type="curve" smooth="yes"/>
      <point x="202" y="654"/>
      <point x="161" y="670"/>
      <point x="142" y="704" type="curve"/>
      <point x="115" y="704" type="line"/>
      <point x="67" y="645" type="line"/>
      <point x="90" y="565"/>
      <point x="152" y="521"/>
      <point x="239" y="521" type="curve" smooth="yes"/>
      <point x="324" y="521"/>
      <point x="384" y="565"/>
      <point x="422" y="645" type="curve" smooth="yes"/>
      <point x="389" y="704" type="line"/>
    </contour>
    <contour>
      <point x="280" y="876" type="line"/>
      <point x="249" y="826"/>
      <point x="216" y="778"/>
      <point x="183" y="730" type="curve"/>
      <point x="241" y="686" type="line"/>
      <point x="256" y="690" type="line"/>
      <point x="300" y="728"/>
      <point x="342" y="768"/>
      <point x="384" y="809" type="curve"/>
      <point x="381" y="823" type="line"/>
      <point x="293" y="880" type="line"/>
    </contour>
    <contour>
      <point x="221" y="472" type="move" name="_top"/>
    </contour>
  </outline>
</glyph>
<glyph name="brevetilde" format="1">
  <advance width="390"/>
  <outline>
    <contour>
      <point x="388" y="910" type="line"/>
      <point x="367" y="883"/>
      <point x="349" y="857"/>
      <point x="325" y="857" type="curve" smooth="yes"/>
      <point x="302" y="857"/>
      <point x="233" y="881"/>
      <point x="186" y="888" type="curve"/>
      <point x="172" y="882" type="line"/>
      <point x="98" y="780" type="line"/>
      <point x="98" y="765" type="line"/>
      <point x="150" y="716" type="line"/>
      <point x="164" y="716" type="line"/>
      <point x="185" y="742"/>
      <point x="203" y="769"/>
      <point x="227" y="769" type="curve" smooth="yes"/>
      <point x="251" y="769"/>
      <point x="319" y="743"/>
      <point x="366" y="737" type="curve"/>
      <point x="381" y="742" type="line"/>
      <point x="453" y="845" type="line"/>
      <point x="453" y="860" type="line"/>
      <point x="403" y="910" type="line"/>
    </contour>
    <contour>
      <point x="354" y="690" type="line"/>
      <point x="331" y="660"/>
      <point x="294" y="644"/>
      <point x="249" y="644" type="curve" smooth="yes"/>
      <point x="205" y="644"/>
      <point x="167" y="659"/>
      <point x="149" y="690" type="curve"/>
      <point x="124" y="690" type="line"/>
      <point x="79" y="635" type="line"/>
      <point x="101" y="561"/>
      <point x="159" y="520"/>
      <point x="239" y="520" type="curve" smooth="yes"/>
      <point x="318" y="520"/>
      <point x="374" y="561"/>
      <point x="410" y="635" type="curve" smooth="yes"/>
      <point x="379" y="690" type="line"/>
    </contour>
    <contour>
      <point x="221" y="472" type="move" name="_top"/>
    </contour>
  </outline>
</glyph>
<glyph name="c.sups" format="1">
  <advance width="259"/>
  <outline>
    <contour>
      <point x="233" y="649" type="line"/>
      <point x="98" y="649"/>
      <point x="39" y="554"/>
      <point x="39" y="446" type="curve" smooth="yes"/>
      <point x="39" y="366"/>
      <point x="70" y="325"/>
      <point x="151" y="314" type="curve"/>
      <point x="166" y="314" type="line"/>
      <point x="217" y="330"/>
      <point x="249" y="355"/>
      <point x="279" y="407" type="curve"/>
      <point x="243" y="449" type="line"/>
      <point x="229" y="449" type="line"/>
      <point x="208" y="414"/>
      <point x="193" y="404"/>
      <point x="177" y="404" type="curve" smooth="yes"/>
      <point x="154" y="404"/>
      <point x="145" y="422"/>
      <point x="145" y="466" type="curve" smooth="yes"/>
      <point x="145" y="534"/>
      <point x="163" y="568"/>
      <point x="202" y="568" type="curve"/>
      <point x="219" y="568"/>
      <point x="229" y="560"/>
      <point x="244" y="543" type="curve"/>
      <point x="268" y="544" type="line"/>
      <point x="298" y="621" type="line"/>
      <point x="294" y="632" type="line"/>
      <point x="233" y="649" type="line"/>
    </contour>
    <contour>
      <point x="231" y="0" type="move" name="bottom"/>
    </contour>
    <contour>
      <point x="232" y="472" type="move" name="top"/>
    </contour>
  </outline>
</glyph>
<glyph name="circumflex.cap" format="1">
  <advance width="390"/>
  <outline>
    <contour>
      <point x="115" y="545" type="line"/>
      <point x="156" y="565"/>
      <point x="202" y="585"/>
      <point x="243" y="605" type="curve"/>
      <point x="280" y="585"/>
      <point x="314" y="565"/>
      <point x="350" y="545" type="curve"/>
      <point x="368" y="545" type="line"/>
      <point x="411" y="621" type="line"/>
      <point x="355" y="660"/>
      <point x="306" y="698"/>
      <point x="264" y="739" type="curve"/>
      <point x="230" y="739" type="line"/>
      <point x="183" y="698"/>
      <point x="130" y="660"/>
      <point x="72" y="621" type="curve"/>
      <point x="97" y="545" type="line"/>
    </contour>
    <contour>
      <point x="221" y="472" type="move" name="_top"/>
    </contour>
  </outline>
</glyph>
<glyph name="circumflextilde" format="1">
  <advance width="390"/>
  <outline>
    <contour>
      <point x="230" y="721" type="line"/>
      <point x="183" y="680"/>
      <point x="130" y="642"/>
      <point x="72" y="603" type="curve"/>
      <point x="97" y="527" type="line"/>
      <point x="115" y="527" type="line"/>
      <point x="156" y="547"/>
      <point x="202" y="567"/>
      <point x="243" y="587" type="curve"/>
      <point x="280" y="567"/>
      <point x="314" y="547"/>
      <point x="350" y="527" type="curve"/>
      <point x="368" y="527" type="line"/>
      <point x="411" y="603" type="line"/>
      <point x="355" y="642"/>
      <point x="306" y="680"/>
      <point x="264" y="721" type="curve"/>
    </contour>
    <contour>
      <point x="384" y="905" type="line"/>
      <point x="363" y="878"/>
      <point x="345" y="852"/>
      <point x="321" y="852" type="curve" smooth="yes"/>
      <point x="298" y="852"/>
      <point x="229" y="876"/>
      <point x="182" y="883" type="curve"/>
      <point x="168" y="877" type="line"/>
      <point x="94" y="775" type="line"/>
      <point x="94" y="760" type="line"/>
      <point x="146" y="711" type="line"/>
      <point x="160" y="711" type="line"/>
      <point x="181" y="737"/>
      <point x="199" y="764"/>
      <point x="223" y="764" type="curve" smooth="yes"/>
      <point x="247" y="764"/>
      <point x="315" y="739"/>
      <point x="362" y="733" type="curve"/>
      <point x="377" y="738" type="line"/>
      <point x="449" y="840" type="line"/>
      <point x="449" y="855" type="line"/>
      <point x="399" y="905" type="line"/>
    </contour>
    <contour>
      <point x="219" y="472" type="move" name="_top"/>
    </contour>
  </outline>
</glyph>
<glyph name="d.sups" format="1">
  <advance width="335"/>
  <outline>
    <contour>
      <point x="211" y="647" type="line"/>
      <point x="206" y="647" type="line"/>
      <point x="89" y="614"/>
      <point x="35" y="514"/>
      <point x="35" y="425" type="curve" smooth="yes"/>
      <point x="35" y="370"/>
      <point x="53" y="332"/>
      <point x="124" y="313" type="curve"/>
      <point x="139" y="313" type="line"/>
      <point x="165" y="341"/>
      <point x="187" y="376"/>
      <point x="207" y="412" type="curve"/>
      <point x="219" y="412" type="line"/>
      <point x="245" y="561" type="line"/>
      <point x="202" y="460"/>
      <point x="169" y="410"/>
      <point x="153" y="410" type="curve" smooth="yes"/>
      <point x="145" y="410"/>
      <point x="136" y="426"/>
      <point x="136" y="468" type="curve" smooth="yes"/>
      <point x="136" y="530"/>
      <point x="155" y="570"/>
      <point x="190" y="570" type="curve"/>
      <point x="270" y="552" type="line"/>
      <point x="328" y="629" type="line"/>
      <point x="211" y="647" type="line"/>
    </contour>
    <contour>
      <point x="371" y="813" type="line"/>
      <point x="260" y="806" type="line"/>
      <point x="258" y="730" type="line"/>
      <point x="203" y="317" type="line"/>
      <point x="313" y="324" type="line"/>
      <point x="316" y="399" type="line"/>
      <point x="371" y="813" type="line"/>
    </contour>
    <contour>
      <point x="385" y="0" type="move" name="bottom"/>
    </contour>
    <contour>
      <point x="508" y="236" type="move" name="center"/>
    </contour>
    <contour>
      <point x="385" y="472" type="move" name="top"/>
    </contour>
    <contour>
      <point x="506" y="472" type="move" name="topright"/>
    </contour>
  </outline>
</glyph>
<glyph name="dieresis.i" format="1">
  <advance width="390"/>
  <outline>
    <contour>
      <point x="284" y="715"/>
      <point x="250" y="681"/>
      <point x="250" y="625" type="curve" smooth="yes"/>
      <point x="250" y="572"/>
      <point x="279" y="543"/>
      <point x="332" y="543" type="curve" smooth="yes"/>
      <point x="385" y="543"/>
      <point x="419" y="578"/>
      <point x="419" y="633" type="curve" smooth="yes"/>
      <point x="419" y="685"/>
      <point x="389" y="715"/>
      <point x="339" y="715" type="curve" smooth="yes"/>
    </contour>
    <contour>
      <point x="101" y="715"/>
      <point x="67" y="681"/>
      <point x="67" y="625" type="curve" smooth="yes"/>
      <point x="67" y="572"/>
      <point x="96" y="543"/>
      <point x="149" y="543" type="curve" smooth="yes"/>
      <point x="202" y="543"/>
      <point x="236" y="578"/>
      <point x="236" y="633" type="curve" smooth="yes"/>
      <point x="236" y="685"/>
      <point x="206" y="715"/>
      <point x="156" y="715" type="curve" smooth="yes"/>
    </contour>
    <contour>
      <point x="224" y="472" type="move" name="_top"/>
    </contour>
  </outline>
</glyph>
<glyph name="eight.dnom" format="1">
  <advance width="384"/>
  <outline>
    <contour>
      <point x="109" y="401"/>
      <point x="43" y="351"/>
      <point x="43" y="273" type="curve" smooth="yes"/>
      <point x="43" y="231"/>
      <point x="62" y="204"/>
      <point x="96" y="186" type="curve"/>
      <point x="95" y="181" type="line"/>
      <point x="37" y="161"/>
      <point x="11" y="131"/>
      <point x="11" y="91" type="curve" smooth="yes"/>
      <point x="11" y="31"/>
      <point x="68" y="-8"/>
      <point x="163" y="-8" type="curve" smooth="yes"/>
      <point x="272" y="-8"/>
      <point x="339" y="44"/>
      <point x="339" y="122" type="curve" smooth="yes"/>
      <point x="339" y="163"/>
      <point x="321" y="186"/>
      <point x="284" y="207" type="curve"/>
      <point x="285" y="213" type="line"/>
      <point x="326" y="237"/>
      <point x="352" y="265"/>
      <point x="352" y="305" type="curve" smooth="yes"/>
      <point x="352" y="362"/>
      <point x="299" y="401"/>
      <point x="210" y="401" type="curve" smooth="yes"/>
    </contour>
    <contour>
      <point x="193" y="139"/>
      <point x="219" y="128"/>
      <point x="219" y="110" type="curve" smooth="yes"/>
      <point x="219" y="97"/>
      <point x="205" y="82"/>
      <point x="173" y="82" type="curve" smooth="yes"/>
      <point x="146" y="82"/>
      <point x="133" y="93"/>
      <point x="133" y="112" type="curve" smooth="yes"/>
      <point x="133" y="126"/>
      <point x="140" y="138"/>
      <point x="170" y="147" type="curve"/>
    </contour>
    <contour>
      <point x="224" y="307"/>
      <point x="235" y="298"/>
      <point x="235" y="284" type="curve" smooth="yes"/>
      <point x="235" y="271"/>
      <point x="227" y="258"/>
      <point x="209" y="243" type="curve"/>
      <point x="184" y="253"/>
      <point x="164" y="264"/>
      <point x="164" y="282" type="curve" smooth="yes"/>
      <point x="164" y="297"/>
      <point x="176" y="307"/>
      <point x="201" y="307" type="curve" smooth="yes"/>
    </contour>
  </outline>
</glyph>
<glyph name="eight.tf" format="1">
  <advance width="476"/>
  <outline>
    <contour>
      <point x="211" y="477" type="move"/>
    </contour>
    <contour>
      <point x="141" y="598"/>
      <point x="53" y="524"/>
      <point x="53" y="414" type="curve" smooth="yes"/>
      <point x="53" y="348"/>
      <point x="83" y="309"/>
      <point x="122" y="283" type="curve"/>
      <point x="121" y="275" type="line"/>
      <point x="46" y="246"/>
      <point x="10" y="205"/>
      <point x="10" y="134" type="curve" smooth="yes"/>
      <point x="10" y="47"/>
      <point x="88" y="-12"/>
      <point x="222" y="-12" type="curve" smooth="yes"/>
      <point x="358" y="-12"/>
      <point x="447" y="63"/>
      <point x="447" y="174" type="curve" smooth="yes"/>
      <point x="447" y="239"/>
      <point x="417" y="276"/>
      <point x="372" y="305" type="curve"/>
      <point x="373" y="313" type="line"/>
      <point x="433" y="349"/>
      <point x="463" y="394"/>
      <point x="463" y="454" type="curve" smooth="yes"/>
      <point x="463" y="541"/>
      <point x="395" y="598"/>
      <point x="277" y="598" type="curve" smooth="yes"/>
    </contour>
    <contour>
      <point x="259" y="209"/>
      <point x="288" y="192"/>
      <point x="288" y="162" type="curve" smooth="yes"/>
      <point x="288" y="140"/>
      <point x="270" y="115"/>
      <point x="227" y="115" type="curve" smooth="yes"/>
      <point x="189" y="115"/>
      <point x="172" y="133"/>
      <point x="172" y="165" type="curve" smooth="yes"/>
      <point x="172" y="192"/>
      <point x="184" y="210"/>
      <point x="222" y="225" type="curve"/>
    </contour>
    <contour>
      <point x="293" y="467"/>
      <point x="309" y="452"/>
      <point x="309" y="425" type="curve" smooth="yes"/>
      <point x="309" y="403"/>
      <point x="298" y="382"/>
      <point x="272" y="360" type="curve"/>
      <point x="233" y="377"/>
      <point x="212" y="394"/>
      <point x="212" y="423" type="curve" smooth="yes"/>
      <point x="212" y="447"/>
      <point x="228" y="467"/>
      <point x="262" y="467" type="curve" smooth="yes"/>
    </contour>
  </outline>
</glyph>
<glyph name="f.sups" format="1">
  <advance width="227"/>
  <outline>
    <contour>
      <point x="277" y="812" type="line"/>
      <point x="180" y="812"/>
      <point x="118" y="755"/>
      <point x="106" y="652" type="curve" smooth="yes"/>
      <point x="84" y="451" type="line"/>
      <point x="55" y="234" type="line"/>
      <point x="166" y="240" type="line"/>
      <point x="169" y="315" type="line"/>
      <point x="188" y="463" type="line"/>
      <point x="219" y="682" type="line" smooth="yes"/>
      <point x="224" y="719"/>
      <point x="238" y="735"/>
      <point x="261" y="735" type="curve" smooth="yes"/>
      <point x="275" y="735"/>
      <point x="292" y="730"/>
      <point x="318" y="717" type="curve"/>
      <point x="333" y="722" type="line"/>
      <point x="352" y="795" type="line"/>
      <point x="348" y="802" type="line"/>
      <point x="277" y="812" type="line"/>
    </contour>
    <contour>
      <point x="280" y="638" type="line"/>
      <point x="55" y="638" type="line"/>
      <point x="48" y="584" type="line"/>
      <point x="53" y="577" type="line"/>
      <point x="280" y="577" type="line"/>
      <point x="288" y="629" type="line"/>
      <point x="280" y="638" type="line"/>
    </contour>
  </outline>
</glyph>
<glyph name="five.lf" format="1">
  <advance width="455"/>
  <outline>
    <contour>
      <point x="342" y="586" type="line"/>
      <point x="181" y="586" type="line"/>
      <point x="118" y="590" type="line"/>
      <point x="97" y="570" type="line"/>
      <point x="59" y="261" type="line"/>
      <point x="69" y="247" type="line"/>
      <point x="176" y="229" type="line" smooth="yes"/>
      <point x="214" y="224"/>
      <point x="231" y="211"/>
      <point x="231" y="188" type="curve" smooth="yes"/>
      <point x="231" y="154"/>
      <point x="197" y="134"/>
      <point x="139" y="134" type="curve" smooth="yes"/>
      <point x="96" y="134"/>
      <point x="56" y="140"/>
      <point x="12" y="153" type="curve"/>
      <point x="-1" y="140" type="line"/>
      <point x="-7" y="1" type="line"/>
      <point x="31" y="-7"/>
      <point x="81" y="-12"/>
      <point x="119" y="-12" type="curve" smooth="yes"/>
      <point x="294" y="-12"/>
      <point x="419" y="84"/>
      <point x="419" y="222" type="curve" smooth="yes"/>
      <point x="419" y="299"/>
      <point x="374" y="345"/>
      <point x="280" y="365" type="curve" smooth="yes"/>
      <point x="221" y="378" type="line"/>
      <point x="229" y="436" type="line"/>
      <point x="308" y="436" type="line"/>
      <point x="417" y="421" type="line"/>
      <point x="431" y="435" type="line"/>
      <point x="468" y="582" type="line"/>
      <point x="458" y="594" type="line"/>
    </contour>
  </outline>
</glyph>
<glyph name="five.tf" format="1">
  <advance width="476"/>
  <outline>
    <contour>
      <point x="355" y="586" type="line"/>
      <point x="191" y="586" type="line"/>
      <point x="127" y="590" type="line"/>
      <point x="106" y="570" type="line"/>
      <point x="68" y="261" type="line"/>
      <point x="78" y="247" type="line"/>
      <point x="186" y="229" type="line" smooth="yes"/>
      <point x="227" y="224"/>
      <point x="245" y="211"/>
      <point x="245" y="188" type="curve" smooth="yes"/>
      <point x="245" y="154"/>
      <point x="209" y="134"/>
      <point x="148" y="134" type="curve" smooth="yes"/>
      <point x="104" y="134"/>
      <point x="64" y="140"/>
      <point x="19" y="153" type="curve"/>
      <point x="6" y="140" type="line"/>
      <point x="1" y="1" type="line"/>
      <point x="39" y="-7"/>
      <point x="90" y="-12"/>
      <point x="128" y="-12" type="curve" smooth="yes"/>
      <point x="306" y="-12"/>
      <point x="433" y="84"/>
      <point x="433" y="222" type="curve" smooth="yes"/>
      <point x="433" y="299"/>
      <point x="386" y="345"/>
      <point x="290" y="365" type="curve" smooth="yes"/>
      <point x="229" y="378" type="line"/>
      <point x="238" y="436" type="line"/>
      <point x="321" y="436" type="line"/>
      <point x="431" y="421" type="line"/>
      <point x="446" y="435" type="line"/>
      <point x="482" y="582" type="line"/>
      <point x="472" y="594" type="line"/>
    </contour>
  </outline>
</glyph>
<glyph name="four.tf" format="1">
  <advance width="475"/>
  <outline>
    <contour>
      <point x="272" y="586" type="line"/>
      <point x="6" y="242" type="line"/>
      <point x="-10" y="128" type="line"/>
      <point x="-0" y="115" type="line"/>
      <point x="104" y="118" type="line"/>
      <point x="319" y="118" type="line"/>
      <point x="444" y="115" type="line"/>
      <point x="467" y="239" type="line"/>
      <point x="458" y="255" type="line"/>
      <point x="162" y="255" type="line"/>
      <point x="257" y="388" type="line"/>
      <point x="267" y="388" type="line"/>
      <point x="248" y="221" type="line"/>
      <point x="211" y="-1" type="line"/>
      <point x="219" y="-12" type="line"/>
      <point x="360" y="-4" type="line"/>
      <point x="371" y="8" type="line"/>
      <point x="382" y="186" type="line"/>
      <point x="436" y="586" type="line"/>
    </contour>
  </outline>
</glyph>
<glyph name="four.tosf" format="1">
  <advance width="475"/>
  <outline>
    <contour>
      <point x="263" y="513" type="line"/>
      <point x="-8" y="164" type="line"/>
      <point x="-22" y="50" type="line"/>
      <point x="-13" y="35" type="line"/>
      <point x="92" y="39" type="line"/>
      <point x="311" y="39" type="line"/>
      <point x="436" y="35" type="line"/>
      <point x="459" y="161" type="line"/>
      <point x="451" y="177" type="line"/>
      <point x="148" y="177" type="line"/>
      <point x="248" y="315" type="line"/>
      <point x="259" y="315" type="line"/>
      <point x="239" y="142" type="line"/>
      <point x="202" y="-83" type="line"/>
      <point x="210" y="-94" type="line"/>
      <point x="351" y="-86" type="line"/>
      <point x="362" y="-74" type="line"/>
      <point x="373" y="107" type="line"/>
      <point x="429" y="513" type="line"/>
    </contour>
  </outline>
</glyph>
<glyph name="hookabove" format="1">
  <advance width="390"/>
  <outline>
    <contour>
      <point x="219" y="772"/>
      <point x="172" y="749"/>
      <point x="138" y="712" type="curve"/>
      <point x="167" y="665" type="line"/>
      <point x="188" y="681"/>
      <point x="216" y="691"/>
      <point x="237" y="691" type="curve" smooth="yes"/>
      <point x="254" y="691"/>
      <point x="267" y="684"/>
      <point x="267" y="667" type="curve" smooth="yes"/>
      <point x="267" y="646"/>
      <point x="247" y="615"/>
      <point x="213" y="591" type="curve"/>
      <point x="267" y="511" type="line"/>
      <point x="330" y="550" type="line"/>
      <point x="303" y="593" type="line"/>
      <point x="350" y="635"/>
      <point x="364" y="656"/>
      <point x="364" y="685" type="curve" smooth="yes"/>
      <point x="364" y="738"/>
      <point x="320" y="772"/>
      <point x="265" y="772" type="curve" smooth="yes"/>
    </contour>
    <contour>
      <point x="274" y="472" type="move" name="_top"/>
    </contour>
  </outline>
</glyph>
<glyph name="l.sups" format="1">
  <advance width="172"/>
  <outline>
    <contour>
      <point x="208" y="813" type="line"/>
      <point x="97" y="806" type="line"/>
      <point x="95" y="730" type="line"/>
      <point x="39" y="317" type="line"/>
      <point x="150" y="324" type="line"/>
      <point x="153" y="399" type="line"/>
      <point x="208" y="813" type="line"/>
    </contour>
    <contour>
      <point x="153" y="0" type="move" name="bottom"/>
    </contour>
    <contour>
      <point x="153" y="467" type="move" name="top"/>
    </contour>
    <contour>
      <point x="273" y="467" type="move" name="topright"/>
    </contour>
  </outline>
</glyph>
<glyph name="m.sups" format="1">
  <advance width="554"/>
  <outline>
    <contour>
      <point x="465" y="645" type="line"/>
      <point x="434" y="618"/>
      <point x="405" y="583"/>
      <point x="375" y="541" type="curve"/>
      <point x="362" y="541" type="line"/>
      <point x="340" y="421" type="line"/>
      <point x="384" y="501"/>
      <point x="420" y="537"/>
      <point x="437" y="537" type="curve" smooth="yes"/>
      <point x="444" y="537"/>
      <point x="450" y="530"/>
      <point x="450" y="517" type="curve"/>
      <point x="449" y="510" type="line"/>
      <point x="418" y="317" type="line"/>
      <point x="531" y="324" type="line"/>
      <point x="534" y="400" type="line"/>
      <point x="561" y="562" type="line"/>
      <point x="561" y="572" type="line"/>
      <point x="562" y="609"/>
      <point x="528" y="637"/>
      <point x="474" y="646" type="curve"/>
    </contour>
    <contour>
      <point x="187" y="646" type="line"/>
      <point x="77" y="639" type="line"/>
      <point x="74" y="564" type="line"/>
      <point x="42" y="317" type="line"/>
      <point x="152" y="324" type="line"/>
      <point x="155" y="399" type="line"/>
      <point x="187" y="646" type="line"/>
    </contour>
    <contour>
      <point x="274" y="645" type="line"/>
      <point x="243" y="618"/>
      <point x="215" y="583"/>
      <point x="184" y="541" type="curve"/>
      <point x="171" y="541" type="line"/>
      <point x="149" y="421" type="line"/>
      <point x="194" y="501"/>
      <point x="229" y="537"/>
      <point x="245" y="537" type="curve" smooth="yes"/>
      <point x="253" y="537"/>
      <point x="259" y="530"/>
      <point x="259" y="517" type="curve"/>
      <point x="258" y="510" type="line"/>
      <point x="226" y="317" type="line"/>
      <point x="340" y="324" type="line"/>
      <point x="343" y="400" type="line"/>
      <point x="370" y="562" type="line"/>
      <point x="370" y="572" type="line"/>
      <point x="371" y="609"/>
      <point x="338" y="637"/>
      <point x="283" y="646" type="curve"/>
    </contour>
    <contour>
      <point x="267" y="10" type="move" name="bottom"/>
    </contour>
    <contour>
      <point x="184" y="467" type="move" name="ogonek"/>
    </contour>
    <contour>
      <point x="155" y="447" type="move" name="top"/>
    </contour>
  </outline>
</glyph>
<glyph name="one.lf" format="1">
  <advance width="394"/>
  <outline>
    <contour>
      <point x="35" y="519" type="line"/>
      <point x="16" y="362" type="line"/>
      <point x="27" y="353" type="line"/>
      <point x="142" y="373" type="line"/>
      <point x="120" y="190" type="line"/>
      <point x="88" y="0" type="line"/>
      <point x="285" y="0" type="line"/>
      <point x="303" y="210" type="line"/>
      <point x="358" y="575" type="line"/>
      <point x="332" y="595" type="line"/>
    </contour>
  </outline>
</glyph>
<glyph name="one.tosf" format="1">
  <advance width="475"/>
  <outline>
    <contour>
      <point x="54" y="446" type="line"/>
      <point x="35" y="289" type="line"/>
      <point x="47" y="280" type="line"/>
      <point x="169" y="300" type="line"/>
      <point x="156" y="190" type="line"/>
      <point x="124" y="0" type="line"/>
      <point x="321" y="0" type="line"/>
      <point x="339" y="210" type="line"/>
      <point x="385" y="502" type="line"/>
      <point x="359" y="522" type="line"/>
    </contour>
  </outline>
</glyph>
<glyph name="seven.dnom" format="1">
  <advance width="324"/>
  <outline>
    <contour>
      <point x="13" y="280" type="line"/>
      <point x="19" y="270" type="line"/>
      <point x="100" y="278" type="line"/>
      <point x="167" y="278" type="line"/>
      <point x="17" y="44" type="line"/>
      <point x="24" y="22" type="line"/>
      <point x="137" y="-8" type="line"/>
      <point x="204" y="120" type="line"/>
      <point x="312" y="293" type="line"/>
      <point x="323" y="394" type="line"/>
      <point x="283" y="393" type="line"/>
      <point x="138" y="393" type="line"/>
      <point x="37" y="396" type="line"/>
    </contour>
  </outline>
</glyph>
<glyph name="three.dnom" format="1">
  <advance width="337"/>
  <outline>
    <contour>
      <point x="132" y="401"/>
      <point x="76" y="388"/>
      <point x="28" y="365" type="curve"/>
      <point x="40" y="270" type="line"/>
      <point x="55" y="270" type="line"/>
      <point x="86" y="281"/>
      <point x="112" y="289"/>
      <point x="135" y="289" type="curve" smooth="yes"/>
      <point x="155" y="289"/>
      <point x="164" y="285"/>
      <point x="164" y="273" type="curve" smooth="yes"/>
      <point x="164" y="254"/>
      <point x="143" y="244"/>
      <point x="113" y="243" type="curve" smooth="yes"/>
      <point x="80" y="241" type="line"/>
      <point x="67" y="146" type="line"/>
      <point x="73" y="138" type="line"/>
      <point x="135" y="138" type="line"/>
      <point x="152" y="138"/>
      <point x="161" y="134"/>
      <point x="161" y="123" type="curve" smooth="yes"/>
      <point x="161" y="105"/>
      <point x="142" y="97"/>
      <point x="100" y="97" type="curve" smooth="yes"/>
      <point x="72" y="97"/>
      <point x="46" y="101"/>
      <point x="14" y="110" type="curve"/>
      <point x="3" y="102" type="line"/>
      <point x="0" y="0" type="line"/>
      <point x="25" y="-5"/>
      <point x="57" y="-8"/>
      <point x="85" y="-8" type="curve" smooth="yes"/>
      <point x="214" y="-8"/>
      <point x="302" y="45"/>
      <point x="302" y="128" type="curve" smooth="yes"/>
      <point x="302" y="166"/>
      <point x="283" y="192"/>
      <point x="244" y="205" type="curve"/>
      <point x="244" y="209" type="line"/>
      <point x="306" y="240"/>
      <point x="317" y="282"/>
      <point x="317" y="309" type="curve" smooth="yes"/>
      <point x="317" y="364"/>
      <point x="264" y="401"/>
      <point x="182" y="401" type="curve" smooth="yes"/>
    </contour>
  </outline>
</glyph>
<glyph name="three.lf" format="1">
  <advance width="453"/>
  <outline>
    <contour>
      <point x="189" y="598"/>
      <point x="122" y="578"/>
      <point x="56" y="544" type="curve"/>
      <point x="69" y="410" type="line"/>
      <point x="89" y="410" type="line"/>
      <point x="132" y="429"/>
      <point x="169" y="441"/>
      <point x="203" y="441" type="curve" smooth="yes"/>
      <point x="231" y="441"/>
      <point x="244" y="433"/>
      <point x="244" y="413" type="curve" smooth="yes"/>
      <point x="244" y="385"/>
      <point x="209" y="362"/>
      <point x="181" y="361" type="curve" smooth="yes"/>
      <point x="122" y="358" type="line"/>
      <point x="101" y="225" type="line"/>
      <point x="107" y="213" type="line"/>
      <point x="191" y="213" type="line"/>
      <point x="221" y="213"/>
      <point x="232" y="203"/>
      <point x="232" y="184" type="curve" smooth="yes"/>
      <point x="232" y="154"/>
      <point x="205" y="136"/>
      <point x="143" y="136" type="curve" smooth="yes"/>
      <point x="105" y="136"/>
      <point x="67" y="143"/>
      <point x="24" y="156" type="curve"/>
      <point x="9" y="144" type="line"/>
      <point x="2" y="1" type="line"/>
      <point x="37" y="-6"/>
      <point x="90" y="-10"/>
      <point x="128" y="-10" type="curve" smooth="yes"/>
      <point x="305" y="-10"/>
      <point x="420" y="73"/>
      <point x="420" y="191" type="curve" smooth="yes"/>
      <point x="420" y="248"/>
      <point x="393" y="278"/>
      <point x="341" y="307" type="curve"/>
      <point x="341" y="313" type="line"/>
      <point x="412" y="347"/>
      <point x="449" y="416"/>
      <point x="449" y="467" type="curve" smooth="yes"/>
      <point x="449" y="544"/>
      <point x="368" y="598"/>
      <point x="257" y="598" type="curve" smooth="yes"/>
    </contour>
  </outline>
</glyph>
<glyph name="two.dnom" format="1">
  <advance width="375"/>
  <outline>
    <contour>
      <point x="159" y="400"/>
      <point x="100" y="382"/>
      <point x="37" y="350" type="curve"/>
      <point x="49" y="242" type="line"/>
      <point x="65" y="242" type="line"/>
      <point x="98" y="267"/>
      <point x="137" y="282"/>
      <point x="161" y="282" type="curve" smooth="yes"/>
      <point x="177" y="282"/>
      <point x="185" y="275"/>
      <point x="185" y="264" type="curve" smooth="yes"/>
      <point x="185" y="242"/>
      <point x="153" y="215"/>
      <point x="110" y="176" type="curve" smooth="yes"/>
      <point x="9" y="87" type="line"/>
      <point x="-1" y="3" type="line"/>
      <point x="5" y="-2" type="line"/>
      <point x="31" y="0" type="line"/>
      <point x="201" y="0" type="line"/>
      <point x="309" y="-6" type="line"/>
      <point x="338" y="106" type="line"/>
      <point x="332" y="115" type="line"/>
      <point x="260" y="108" type="line"/>
      <point x="203" y="108" type="line"/>
      <point x="201" y="111" type="line"/>
      <point x="241" y="152" type="line" smooth="yes"/>
      <point x="312" y="224"/>
      <point x="337" y="266"/>
      <point x="337" y="308" type="curve" smooth="yes"/>
      <point x="337" y="368"/>
      <point x="283" y="400"/>
      <point x="213" y="400" type="curve" smooth="yes"/>
    </contour>
  </outline>
</glyph>
<glyph name="two.tf" format="1">
  <advance width="476"/>
  <outline>
    <contour>
      <point x="202" y="597"/>
      <point x="123" y="567"/>
      <point x="54" y="521" type="curve"/>
      <point x="67" y="370" type="line"/>
      <point x="88" y="370" type="line"/>
      <point x="136" y="408"/>
      <point x="188" y="432"/>
      <point x="218" y="432" type="curve" smooth="yes"/>
      <point x="240" y="432"/>
      <point x="250" y="419"/>
      <point x="250" y="402" type="curve" smooth="yes"/>
      <point x="250" y="365"/>
      <point x="206" y="324"/>
      <point x="163" y="277" type="curve" smooth="yes"/>
      <point x="11" y="122" type="line"/>
      <point x="-4" y="4" type="line"/>
      <point x="4" y="-3" type="line"/>
      <point x="40" y="0" type="line"/>
      <point x="266" y="0" type="line"/>
      <point x="406" y="-8" type="line"/>
      <point x="449" y="149" type="line"/>
      <point x="441" y="162" type="line"/>
      <point x="344" y="152" type="line"/>
      <point x="267" y="152" type="line" smooth="yes"/>
      <point x="264" y="157" type="line"/>
      <point x="322" y="226" type="line" smooth="yes"/>
      <point x="420" y="334"/>
      <point x="451" y="387"/>
      <point x="451" y="446" type="curve" smooth="yes"/>
      <point x="451" y="537"/>
      <point x="376" y="597"/>
      <point x="274" y="597" type="curve" smooth="yes"/>
    </contour>
  </outline>
</glyph>
<glyph name="u.sups" format="1">
  <advance width="355"/>
  <outline>
    <contour>
      <point x="188" y="645" type="line"/>
      <point x="75" y="638" type="line"/>
      <point x="71" y="562" type="line"/>
      <point x="45" y="402" type="line"/>
      <point x="44" y="389" type="line"/>
      <point x="44" y="351"/>
      <point x="78" y="323"/>
      <point x="133" y="316" type="curve"/>
      <point x="142" y="317" type="line"/>
      <point x="173" y="344"/>
      <point x="199" y="376"/>
      <point x="227" y="417" type="curve"/>
      <point x="251" y="417" type="line"/>
      <point x="266" y="542" type="line"/>
      <point x="219" y="462"/>
      <point x="187" y="424"/>
      <point x="170" y="424" type="curve" smooth="yes"/>
      <point x="161" y="424"/>
      <point x="156" y="431"/>
      <point x="156" y="444" type="curve"/>
      <point x="157" y="453" type="line"/>
      <point x="188" y="645" type="line"/>
    </contour>
    <contour>
      <point x="368" y="646" type="line"/>
      <point x="258" y="639" type="line"/>
      <point x="255" y="564" type="line"/>
      <point x="222" y="317" type="line"/>
      <point x="332" y="324" type="line"/>
      <point x="336" y="399" type="line"/>
      <point x="368" y="646" type="line"/>
    </contour>
    <contour>
      <point x="545" y="10" type="move" name="bottom"/>
    </contour>
    <contour>
      <point x="348" y="467" type="move" name="ogonek"/>
    </contour>
    <contour>
      <point x="285" y="447" type="move" name="top"/>
    </contour>
  </outline>
</glyph>
<glyph name="zero.dnom" format="1">
  <advance width="380"/>
  <outline>
    <contour>
      <point x="89" y="401"/>
      <point x="13" y="306"/>
      <point x="13" y="151" type="curve" smooth="yes"/>
      <point x="13" y="49"/>
      <point x="61" y="-8"/>
      <point x="151" y="-8" type="curve" smooth="yes"/>
      <point x="281" y="-8"/>
      <point x="356" y="87"/>
      <point x="356" y="242" type="curve" smooth="yes"/>
      <point x="356" y="344"/>
      <point x="308" y="401"/>
      <point x="220" y="401" type="curve" smooth="yes"/>
    </contour>
    <contour>
      <point x="226" y="270"/>
      <point x="240" y="253"/>
      <point x="240" y="212" type="curve" smooth="yes"/>
      <point x="240" y="154"/>
      <point x="231" y="112"/>
      <point x="174" y="112" type="curve" smooth="yes"/>
      <point x="142" y="112"/>
      <point x="130" y="131"/>
      <point x="130" y="171" type="curve" smooth="yes"/>
      <point x="130" y="250"/>
      <point x="154" y="270"/>
      <point x="192" y="270" type="curve" smooth="yes"/>
    </contour>
  </outline>
</glyph>
